<?xml version="1.0" standalone="no"?>
<!DOCTYPE svg PUBLIC "-//W3C//DTD SVG 20010904//EN"
 "http://www.w3.org/TR/2001/REC-SVG-20010904/DTD/svg10.dtd">
<svg version="1.0" xmlns="http://www.w3.org/2000/svg"
 width="416.000000pt" height="416.000000pt" viewBox="0 0 416.000000 416.000000"
 preserveAspectRatio="xMidYMid meet">

<g transform="translate(0.000000,416.000000) scale(0.100000,-0.100000)"
fill="#000000" stroke="none">
<path d="M1925 4143 c-749 -65 -1384 -502 -1710 -1175 -378 -781 -218 -1720
400 -2342 752 -757 1946 -820 2769 -147 94 77 277 267 348 362 272 362 411
782 411 1239 0 457 -139 877 -411 1239 -71 95 -254 285 -348 362 -252 206
-577 361 -889 424 -185 38 -407 52 -570 38z m368 -398 c741 -97 1309 -645
1443 -1390 24 -138 24 -412 0 -550 -106 -591 -488 -1066 -1031 -1284 -733
-293 -1584 -32 -2018 620 -339 508 -381 1137 -112 1684 314 641 1009 1013
1718 920z"/>
</g>
</svg>
